<?xml version="1.0" encoding="utf-8"?><svg viewBox="0 0 19 18" xmlns="http://www.w3.org/2000/svg" xmlns:xlink="http://www.w3.org/1999/xlink"><style>:root>svg{display:none}:root>svg:target{display:block}</style><svg viewBox="0 0 14 14" id="close-icon" xmlns="http://www.w3.org/2000/svg"><path d="M14 1.41L12.59 0 7 5.59 1.41 0 0 1.41 5.59 7 0 12.59 1.41 14 7 8.41 12.59 14 14 12.59 8.41 7 14 1.41z"/></svg><svg viewBox="0 0 19 18" id="heart-icon" xmlns="http://www.w3.org/2000/svg"><path d="M9.5 16.012l-1.088-.99C4.55 11.52 2 9.21 2 6.376A4.085 4.085 0 016.125 2.25c1.305 0 2.557.607 3.375 1.567a4.491 4.491 0 013.375-1.567A4.085 4.085 0 0117 6.375c0 2.835-2.55 5.145-6.412 8.655l-1.088.982z"/></svg><svg viewBox="0 0 17 17" id="search-icon" xmlns="http://www.w3.org/2000/svg"><path fill-rule="evenodd" clip-rule="evenodd" d="M1.7 7.65a5.95 5.95 0 1110.236 4.127.848.848 0 00-.159.159A5.95 5.95 0 011.7 7.65zm10.725 5.977a7.65 7.65 0 111.202-1.202l3.124 3.124a.85.85 0 01-1.202 1.202l-3.124-3.124z"/></svg></svg>